<svg width="142" height="24" viewBox="0 0 142 24" fill="none" xmlns="http://www.w3.org/2000/svg">
<path d="M0.952148 11.4863C0.952148 9.44531 1.24512 7.72168 1.83105 6.31543C2.42676 4.90918 3.27148 3.75684 4.36523 2.8584C5.41016 1.99902 6.63574 1.33496 8.04199 0.866211C9.44824 0.397461 11.0645 0.163086 12.8906 0.163086C14.1504 0.163086 15.2686 0.216797 16.2451 0.324219C17.2217 0.431641 18.0908 0.573242 18.8525 0.749023C19.624 0.924805 20.3076 1.125 20.9033 1.34961C21.5088 1.57422 22.0703 1.80859 22.5879 2.05273V8.74707H18.1787C17.6807 8.04395 17.124 7.52637 16.5088 7.19434C15.9033 6.8623 15.2783 6.69629 14.6338 6.69629C14.0869 6.69629 13.5547 6.80371 13.0371 7.01855C12.5293 7.2334 12.0752 7.5459 11.6748 7.95605C11.2744 8.36621 10.9521 8.86914 10.708 9.46484C10.4639 10.0508 10.3418 10.7246 10.3418 11.4863C10.3418 13.1758 10.7227 14.4111 11.4844 15.1924C12.2559 15.9736 13.3496 16.3643 14.7656 16.3643C15.1172 16.3643 15.4688 16.3447 15.8203 16.3057C16.1816 16.2666 16.543 16.208 16.9043 16.1299V14.3574H14.0918V10.3438H23.2031V21.0371C22.4316 21.3594 21.6113 21.667 20.7422 21.96C19.8828 22.2432 19.0186 22.4922 18.1494 22.707C17.29 22.9121 16.4453 23.0537 15.6152 23.1318C14.7852 23.2197 14.0186 23.2637 13.3154 23.2637C12.1631 23.2637 11.0596 23.1807 10.0049 23.0146C8.9502 22.8486 7.96387 22.5508 7.0459 22.1211C6.1377 21.6914 5.30762 21.1543 4.55566 20.5098C3.80371 19.8555 3.15918 19.0889 2.62207 18.21C2.09473 17.3213 1.68457 16.3203 1.3916 15.207C1.09863 14.084 0.952148 12.8438 0.952148 11.4863ZM29.7342 23.2246C28.5288 23.2246 27.4881 22.9663 26.6121 22.4497C25.7361 21.9256 25.0623 21.2218 24.5906 20.3384C24.1189 19.4474 23.8831 18.4517 23.8831 17.3511V16.8906C23.8831 15.6253 24.1227 14.5247 24.6019 13.5889C25.081 12.6455 25.7361 11.9155 26.5672 11.3989C27.4057 10.8823 28.3528 10.624 29.4085 10.624C30.5765 10.624 31.546 10.8786 32.3172 11.3877C33.0883 11.8893 33.6648 12.5894 34.0467 13.4878C34.4285 14.3787 34.6194 15.4119 34.6194 16.5874V17.7891H25.2195V15.7788H31.868V15.5654C31.853 15.0938 31.7632 14.652 31.5984 14.2402C31.4337 13.8285 31.1717 13.4953 30.8123 13.2407C30.4604 12.9862 29.9887 12.8589 29.3973 12.8589C28.8058 12.8589 28.3079 13.0273 27.9036 13.3643C27.4993 13.6937 27.1924 14.1616 26.9827 14.7681C26.7731 15.367 26.6683 16.0745 26.6683 16.8906V17.3511C26.6683 18.0399 26.7955 18.6576 27.0501 19.2041C27.3047 19.7507 27.6753 20.1849 28.1619 20.5068C28.6486 20.8213 29.2288 20.9785 29.9026 20.9785C30.554 20.9785 31.1305 20.8512 31.6321 20.5967C32.1412 20.3421 32.5792 19.9753 32.9461 19.4961L34.4061 20.9561C34.0242 21.5326 33.4477 22.0566 32.6766 22.5283C31.9129 22.9925 30.9321 23.2246 29.7342 23.2246ZM40.3079 10.8486H43.1941L38.9939 23H37.1971L37.3767 20.7988L40.3079 10.8486ZM38.1629 20.8325L38.2976 23H36.512L32.2781 10.8486H35.1756L38.1629 20.8325ZM44.7161 23H41.9309V10.8486H44.7161V23ZM41.7512 7.67041C41.7512 7.24365 41.8897 6.89176 42.1668 6.61475C42.4438 6.33024 42.8294 6.18799 43.3235 6.18799C43.8176 6.18799 44.207 6.33024 44.4915 6.61475C44.776 6.89176 44.9182 7.24365 44.9182 7.67041C44.9182 8.08968 44.776 8.44157 44.4915 8.72607C44.207 9.00309 43.8176 9.1416 43.3235 9.1416C42.8294 9.1416 42.4438 9.00309 42.1668 8.72607C41.8897 8.44157 41.7512 8.08968 41.7512 7.67041ZM49.5398 20.9897C49.974 20.9897 50.3671 20.9036 50.719 20.7314C51.0709 20.5518 51.3516 20.3084 51.5613 20.0015C51.7709 19.6945 51.887 19.3426 51.9094 18.9458H54.5373C54.5149 19.7469 54.279 20.4694 53.8298 21.1133C53.3806 21.7572 52.7854 22.27 52.0442 22.6519C51.303 23.0337 50.4757 23.2246 49.5622 23.2246C48.3269 23.2246 47.2974 22.9513 46.4739 22.4048C45.6578 21.8507 45.0476 21.1133 44.6433 20.1924C44.239 19.264 44.0369 18.2383 44.0369 17.1152V16.7334C44.0369 15.6104 44.239 14.5884 44.6433 13.6675C45.0476 12.7391 45.6578 12.0016 46.4739 11.4551C47.2974 10.901 48.3269 10.624 49.5622 10.624C50.543 10.624 51.4003 10.8187 52.134 11.208C52.8752 11.5898 53.4555 12.1252 53.8747 12.814C54.294 13.5028 54.5149 14.3076 54.5373 15.2285H51.9094C51.887 14.7943 51.7784 14.3975 51.5837 14.0381C51.3966 13.6787 51.127 13.3942 50.7751 13.1846C50.4307 12.9674 50.0152 12.8589 49.5286 12.8589C48.8098 12.8589 48.252 13.0461 47.8552 13.4204C47.4659 13.7948 47.1964 14.2777 47.0466 14.8691C46.8969 15.4606 46.822 16.082 46.822 16.7334V17.1152C46.822 17.7741 46.8931 18.3993 47.0354 18.9907C47.1851 19.5822 47.4584 20.0651 47.8552 20.4395C48.252 20.8063 48.8135 20.9897 49.5398 20.9897ZM67.2296 12.7598V23H56.7433V17.0664L58.4933 16.7246V8.27539L56.7433 7.93359V2H67.2296L71.632 10.0664L75.9933 2H86.4933V7.93359L84.7433 8.27539V16.7246L86.4933 17.0664V23H75.9933V12.7598L71.632 20.3066L67.2296 12.7598ZM95.0065 10.8486H97.7917V23H95.1638L95.0065 20.125V10.8486ZM96.3205 17.5645C96.3205 18.6576 96.1595 19.6309 95.8376 20.4844C95.5157 21.3304 95.014 22.0005 94.3327 22.4946C93.6514 22.9813 92.7679 23.2246 91.6823 23.2246C90.4844 23.2246 89.5148 22.8727 88.7736 22.1689C88.0324 21.4652 87.6618 20.3084 87.6618 18.6987V10.8486H90.447V18.7212C90.447 19.2827 90.5331 19.7282 90.7053 20.0576C90.885 20.3796 91.1208 20.6079 91.4128 20.7427C91.7048 20.8774 92.0267 20.9448 92.3786 20.9448C93.1348 20.9448 93.73 20.7988 94.1643 20.5068C94.606 20.2074 94.9204 19.8031 95.1076 19.2939C95.2948 18.7848 95.3884 18.2158 95.3884 17.5869L96.3205 17.5645ZM100.178 23H97.3932V10.8486H100.01L100.178 13.4429V23ZM98.7858 16.4976C98.7933 15.3221 98.9992 14.2964 99.4035 13.4204C99.8078 12.5369 100.373 11.8519 101.099 11.3652C101.826 10.8711 102.672 10.624 103.637 10.624C104.424 10.624 105.105 10.7738 105.681 11.0732C106.258 11.3652 106.707 11.8444 107.029 12.5107C107.351 13.1696 107.512 14.0568 107.512 15.1724V23H104.716V15.1499C104.716 14.5884 104.633 14.1429 104.468 13.8135C104.311 13.484 104.072 13.252 103.75 13.1172C103.435 12.9749 103.05 12.9038 102.593 12.9038C102.129 12.9038 101.717 12.9974 101.358 13.1846C101.006 13.3643 100.702 13.6188 100.448 13.9482C100.201 14.2777 100.01 14.6595 99.8752 15.0938C99.7479 15.528 99.6843 15.9922 99.6843 16.4863L98.7858 16.4976ZM114.526 5.75H117.311V23H114.784L114.526 20.4507V5.75ZM106.642 16.8232C106.642 15.5954 106.833 14.5173 107.215 13.5889C107.604 12.653 108.154 11.9268 108.865 11.4102C109.577 10.8861 110.43 10.624 111.426 10.624C112.407 10.624 113.227 10.8786 113.885 11.3877C114.544 11.8968 115.061 12.6043 115.435 13.5103C115.817 14.4087 116.072 15.4531 116.199 16.6436V17.2949C116.072 18.4479 115.821 19.4699 115.446 20.3608C115.072 21.2518 114.552 21.9518 113.885 22.4609C113.227 22.9701 112.399 23.2246 111.403 23.2246C110.423 23.2246 109.577 22.9588 108.865 22.4272C108.154 21.8882 107.604 21.1545 107.215 20.2261C106.833 19.2977 106.642 18.242 106.642 17.0591V16.8232ZM109.427 17.0591C109.427 17.7778 109.517 18.4329 109.696 19.0244C109.876 19.6084 110.161 20.0763 110.55 20.4282C110.947 20.7726 111.467 20.9448 112.111 20.9448C112.717 20.9448 113.215 20.8138 113.605 20.5518C114.001 20.2822 114.308 19.9191 114.526 19.4624C114.75 19.0057 114.904 18.4928 114.986 17.9238V16.0259C114.934 15.5767 114.84 15.1611 114.705 14.7793C114.57 14.3975 114.387 14.068 114.155 13.791C113.93 13.514 113.65 13.2969 113.313 13.1396C112.976 12.9824 112.583 12.9038 112.133 12.9038C111.49 12.9038 110.965 13.0798 110.561 13.4316C110.164 13.776 109.876 14.2477 109.696 14.8467C109.517 15.4382 109.427 16.097 109.427 16.8232V17.0591ZM123.841 14.7905C123.841 14.1616 123.666 13.66 123.314 13.2856C122.969 12.9113 122.445 12.7241 121.741 12.7241C121.322 12.7241 120.955 12.799 120.641 12.9487C120.326 13.091 120.083 13.2856 119.911 13.5327C119.739 13.7798 119.652 14.0605 119.652 14.375H116.867C116.867 13.7236 117.073 13.1134 117.485 12.5444C117.897 11.9679 118.477 11.5037 119.226 11.1519C119.982 10.8 120.873 10.624 121.899 10.624C122.812 10.624 123.624 10.7775 124.336 11.0845C125.047 11.3914 125.605 11.8556 126.009 12.4771C126.421 13.0985 126.627 13.8771 126.627 14.813V20.1699C126.627 20.7389 126.668 21.2406 126.75 21.6748C126.832 22.109 126.949 22.4871 127.098 22.8091V23H124.246C124.118 22.708 124.017 22.3299 123.943 21.8657C123.875 21.4015 123.841 20.9486 123.841 20.5068V14.7905ZM124.268 17.3174H122.359C121.371 17.3174 120.626 17.5008 120.124 17.8677C119.63 18.2271 119.383 18.7174 119.383 19.3389C119.383 19.818 119.548 20.2186 119.877 20.5405C120.207 20.855 120.671 21.0122 121.27 21.0122C121.816 21.0122 122.292 20.9036 122.696 20.6865C123.108 20.4619 123.43 20.1886 123.662 19.8667C123.894 19.5373 124.014 19.2303 124.021 18.9458L124.908 20.1924C124.818 20.4993 124.665 20.8288 124.448 21.1807C124.238 21.5251 123.957 21.8545 123.606 22.1689C123.261 22.4759 122.849 22.7305 122.37 22.9326C121.899 23.1273 121.348 23.2246 120.719 23.2246C119.926 23.2246 119.218 23.0674 118.597 22.7529C117.975 22.4385 117.485 22.008 117.126 21.4614C116.774 20.9074 116.598 20.286 116.598 19.5972C116.598 18.3094 117.081 17.3211 118.047 16.6323C119.012 15.9435 120.382 15.5991 122.157 15.5991H124.246L124.268 17.3174ZM129.126 23H126.34V10.8486H128.991L129.126 13.2295V23ZM132.787 13.4092C132.615 13.3792 132.431 13.3568 132.236 13.3418C132.049 13.3268 131.862 13.3193 131.675 13.3193C131.061 13.3193 130.548 13.4316 130.136 13.6562C129.732 13.8734 129.425 14.1878 129.215 14.5996C129.006 15.0039 128.882 15.4831 128.845 16.0371L128.205 16.0483C128.205 15.0226 128.339 14.1017 128.609 13.2856C128.879 12.4696 129.283 11.8219 129.822 11.3428C130.361 10.8636 131.035 10.624 131.843 10.624C132.001 10.624 132.177 10.639 132.371 10.6689C132.566 10.6989 132.712 10.7326 132.809 10.77L132.787 13.4092ZM136.768 23.2246C135.563 23.2246 134.522 22.9663 133.646 22.4497C132.77 21.9256 132.096 21.2218 131.625 20.3384C131.153 19.4474 130.917 18.4517 130.917 17.3511V16.8906C130.917 15.6253 131.157 14.5247 131.636 13.5889C132.115 12.6455 132.77 11.9155 133.601 11.3989C134.44 10.8823 135.387 10.624 136.442 10.624C137.61 10.624 138.58 10.8786 139.351 11.3877C140.122 11.8893 140.699 12.5894 141.081 13.4878C141.462 14.3787 141.653 15.4119 141.653 16.5874V17.7891H132.254V15.7788H138.902V15.5654C138.887 15.0938 138.797 14.652 138.632 14.2402C138.468 13.8285 138.206 13.4953 137.846 13.2407C137.494 12.9862 137.023 12.8589 136.431 12.8589C135.84 12.8589 135.342 13.0273 134.938 13.3643C134.533 13.6937 134.226 14.1616 134.017 14.7681C133.807 15.367 133.702 16.0745 133.702 16.8906V17.3511C133.702 18.0399 133.83 18.6576 134.084 19.2041C134.339 19.7507 134.709 20.1849 135.196 20.5068C135.683 20.8213 136.263 20.9785 136.937 20.9785C137.588 20.9785 138.164 20.8512 138.666 20.5967C139.175 20.3421 139.613 19.9753 139.98 19.4961L141.44 20.9561C141.058 21.5326 140.482 22.0566 139.711 22.5283C138.947 22.9925 137.966 23.2246 136.768 23.2246Z" fill="#FF6813"/>
</svg>
